<svg id="Layer_1" data-name="Layer 1" xmlns="http://www.w3.org/2000/svg" viewBox="0 0 1024 1024"><defs><style>.cls-1{fill:#2f93e0;}.cls-2{fill:#fff;}</style></defs><title>octopus</title><rect class="cls-1" x="32.18" y="75.23" width="959.65" height="869.21" rx="34.54" ry="34.54"/><path class="cls-2" d="M155.51,550.84c20.08-12.94,43.68-35.11,34.72-61.24-4.88-14.23-11.64-26.43-12.55-41.82a94.19,94.19,0,0,1,5.72-38.3c18-48.33,71.54-71.22,119.92-56.69,44.81,13.46,75.64,65.49,57.07,110.82-10.72,26.16-15.52,46.36,8.38,66.72,6.48,5.52,22.21,13.79,22.15,23.58-0.08,12.82-25.22-2.73-28-5,3.2,5.59,34.89,38.63,14.72,41-18.57,2.16-35-23.77-46.13-34.91-18.75-18.7-15.49,22.67-15.57,31.22-0.13,13.49-9.67,40.84-26.78,23-14.13-14.7-8.79-38.16-18.61-54.49-10.76-17.89-28.66,17.89-33.14,24.44-5,7.31-30,42.73-40,23.86-8.07-15.31,4.83-39.33,11.18-53.18-2.31,5-18.71,12.47-23.5,14.89-10.83,5.47-21.82,8.71-34,7.84-25.2-1.81-5.87-15.18,4.39-21.8h0Z"/><path class="cls-2" d="M566.92,605.67H515.65V465.29l0.5-23.06L517,417q-12.78,12.78-17.75,16.76l-27.88,22.4L446.63,425.3l78.15-62.22h42.15V605.67Z"/><path class="cls-2" d="M622.94,581.94q0-13.94,7.47-21.07t21.74-7.13q13.77,0,21.32,7.3T681,581.94q0,13.11-7.63,20.66t-21.24,7.55q-13.94,0-21.57-7.38T622.94,581.94Z"/><path class="cls-2" d="M865.29,484.38q0,63.55-20.82,94.08T780.34,609q-42,0-63.3-31.53t-21.32-93.08q0-64.21,20.74-94.66t63.88-30.45q42,0,63.47,31.86T865.29,484.38Zm-118.64,0q0,44.64,7.72,64t26,19.33q17.92,0,25.88-19.58t8-63.72q0-44.63-8-64.13t-25.8-19.5q-18.09,0-25.88,19.5T746.66,484.38Z"/></svg>