<svg width="40" height="40" viewBox="0 0 40 40" fill="none" xmlns="http://www.w3.org/2000/svg">
<path d="M23.1989 31.4181C24.632 30.4964 26.316 28.9164 25.6769 27.0551C25.3285 26.0404 24.8459 25.1719 24.7825 24.0756C24.7272 23.1477 24.8656 22.2183 25.189 21.3466C26.4742 17.9028 30.2946 16.2733 33.7475 17.3078C36.9463 18.2653 39.1462 21.9732 37.8208 25.2056C37.0561 27.0697 36.7134 28.5089 38.4193 29.959C38.8815 30.3523 40.0049 30.9416 40 31.6385C39.9943 32.5517 38.2001 31.4441 37.9997 31.2854C38.2278 31.6836 40.4899 34.038 39.0503 34.2056C37.7249 34.3598 36.5548 32.5119 35.7571 31.7189C34.4191 30.3864 34.6521 33.3342 34.646 33.943C34.6367 34.9045 33.9548 36.8526 32.7352 35.5839C31.7265 34.5364 32.1078 32.8646 31.4069 31.7018C30.6389 30.427 29.3611 32.9766 29.042 33.443C28.6854 33.9641 26.9006 36.487 26.1908 35.1427C25.6147 34.0518 26.5355 32.3423 26.9884 31.354C26.8234 31.7124 25.6529 32.2424 25.311 32.4149C24.5385 32.8045 23.7543 33.0355 22.885 32.973C21.0868 32.8443 22.4663 31.8897 23.1989 31.4181Z" fill="#0D80D8"/>
<path d="M25.5 1.49927C25.5 0.687164 26.125 0 27 0C27.8125 0 28.5 0.687164 28.5 1.49927V3.49829H30.5C31.3125 3.49829 32 4.18546 32 4.99756C32 5.87213 31.3125 6.49683 30.5 6.49683H28.5V8.49585C28.5 9.37042 27.8125 9.99512 27 9.99512C26.125 9.99512 25.5 9.37042 25.5 8.49585V6.49683H23.5C22.625 6.49683 22 5.87213 22 4.99756C22 4.18546 22.625 3.49829 23.5 3.49829H25.5V1.49927Z" fill="#2E475D"/>
<path d="M19.0712 15.7296L16.2811 17.8078V15.8518C16.2811 15.4635 16.3098 15.1279 16.3673 14.8451C16.4297 14.5622 16.5232 14.3321 16.6478 14.1547C16.7629 13.9869 16.9043 13.8623 17.0721 13.7808C17.2447 13.6945 17.4436 13.6514 17.6689 13.6514C17.8703 13.6514 18.0501 13.6849 18.2083 13.752C18.3713 13.8143 18.5079 13.9126 18.6181 14.0469C18.762 14.2146 18.8698 14.44 18.9417 14.7228C19.0184 15.0009 19.0616 15.3365 19.0712 15.7296Z" fill="#2E475D"/>
<path d="M18.9777 19.9867C19.04 19.699 19.0712 19.361 19.0712 18.9727V17.0887L16.2811 19.1597C16.2906 19.4761 16.3218 19.7566 16.3745 20.001C16.4321 20.2455 16.5112 20.4493 16.6118 20.6123C16.7269 20.8088 16.8731 20.9551 17.0505 21.0509C17.2279 21.1468 17.4388 21.1948 17.6833 21.1948C17.9086 21.1948 18.1076 21.154 18.2802 21.0725C18.4528 20.9862 18.5966 20.8568 18.7116 20.6842C18.8315 20.502 18.9202 20.2695 18.9777 19.9867Z" fill="#2E475D"/>
<path fill-rule="evenodd" clip-rule="evenodd" d="M20.1437 4H3.92727C1.7583 4 0 5.7583 0 7.92727V27.0727C0 29.2417 1.7583 31 3.92727 31H20.5894C20.8639 30.6616 21.1833 30.4065 21.385 30.2542C21.5571 30.1243 21.7328 30.0043 21.8927 29.9005C21.9095 29.8867 21.924 29.8751 21.9356 29.8661C21.9787 29.8323 22.016 29.8057 22.0394 29.7894C22.0878 29.7556 22.1337 29.726 22.1705 29.7031C22.2064 29.6808 22.2556 29.6512 22.3113 29.6208C22.3215 29.6152 22.3356 29.6076 22.3528 29.5987C22.8876 29.221 23.3345 28.8194 23.6029 28.4363C23.8765 28.0457 23.8448 27.8738 23.7989 27.7452L23.7978 27.742C23.7221 27.5285 23.638 27.3157 23.54 27.0686L23.5304 27.0445C23.439 26.814 23.3336 26.5484 23.2367 26.276C23.0337 25.7052 22.8334 25.0136 22.7876 24.2122C22.7129 23.0093 22.8631 21.8256 23.3354 20.637C24.0546 18.6837 25.3797 17.2076 27 16.2574V11.9951C25.0217 11.9951 23.5005 10.4764 23.5 8.49683C21.5214 8.49683 20 6.97762 20 4.99756C20 4.65443 20.0498 4.31897 20.1437 4ZM21.0847 18.6707V16.1682C21.0847 15.4923 21.0056 14.8978 20.8474 14.3848C20.6892 13.8671 20.4639 13.4332 20.1714 13.0833C19.8742 12.7381 19.5146 12.4768 19.0928 12.2994C18.6709 12.1221 18.1963 12.0334 17.6689 12.0334C17.1464 12.0334 16.6742 12.1221 16.2523 12.2994C15.8352 12.4768 15.4805 12.7381 15.188 13.0833C14.8908 13.4332 14.6631 13.8671 14.5049 14.3848C14.3467 14.8978 14.2676 15.4923 14.2676 16.1682V18.6707C14.2676 19.3467 14.3467 19.9435 14.5049 20.4613C14.6679 20.9742 14.898 21.4033 15.1952 21.7485C15.4876 22.0984 15.8448 22.3621 16.2667 22.5395C16.6885 22.7169 17.1608 22.8056 17.6833 22.8056C18.2107 22.8056 18.6853 22.7169 19.1071 22.5395C19.529 22.3621 19.8862 22.0984 20.1786 21.7485C20.471 21.4033 20.694 20.9742 20.8474 20.4613C21.0056 19.9435 21.0847 19.3467 21.0847 18.6707ZM8.83832 12.1844V22.6545H6.81763V14.6221L4.17132 15.5714V13.8311L8.73045 12.1844H8.83832ZM10.9103 22.4244C10.661 22.1751 10.5364 21.8659 10.5364 21.4968C10.5364 21.1276 10.6586 20.816 10.9031 20.562C11.1476 20.3031 11.488 20.1736 11.9242 20.1736C12.3557 20.1736 12.6937 20.3007 12.9382 20.5548C13.1875 20.8088 13.3121 21.1229 13.3121 21.4968C13.3121 21.8707 13.1851 22.1823 12.931 22.4316C12.6817 22.6761 12.3461 22.7984 11.9242 22.7984C11.4976 22.7984 11.1596 22.6737 10.9103 22.4244Z" fill="#2E475D"/>
</svg>
