<svg width="40" height="40" viewBox="0 0 40 40" fill="none" xmlns="http://www.w3.org/2000/svg">
<path fill-rule="evenodd" clip-rule="evenodd" d="M24 6C26.1875 6 28 7.75 28 10V15.753C25.9311 16.6391 24.1977 18.295 23.3354 20.637C22.8631 21.8256 22.7129 23.0093 22.7876 24.2122C22.8334 25.0136 23.0337 25.7052 23.2367 26.276C23.3336 26.5484 23.4389 26.8138 23.5304 27.0443L23.54 27.0686C23.638 27.3157 23.7221 27.5285 23.7978 27.742L23.7989 27.7452C23.8448 27.8738 23.8765 28.0457 23.6029 28.4363C23.3345 28.8194 22.8876 29.221 22.3528 29.5987C22.3356 29.6076 22.3215 29.6152 22.3113 29.6208C22.2556 29.6512 22.2064 29.6808 22.1705 29.7031C22.1337 29.726 22.0878 29.7556 22.0394 29.7894C22.016 29.8057 21.9787 29.8323 21.9356 29.8661C21.924 29.8751 21.9095 29.8867 21.8927 29.9005C21.7328 30.0043 21.5571 30.1243 21.385 30.2542C21.1418 30.4379 20.7274 30.771 20.4269 31.2194C20.2746 31.4466 20.034 31.8745 20.0032 32.4498C19.972 33.0342 20.1677 33.5782 20.518 34H4C1.75 34 0 32.1875 0 30V10C0 7.75 1.75 6 4 6H24ZM14.6875 27.6875L21.6875 20.6875C22.0625 20.3125 22.0625 19.625 21.6875 19.25L14.6875 12.25C14.375 12 13.9375 11.875 13.5625 12.0625C13.1875 12.1875 13 12.5625 13 13L13 17H7C5.875 17 5 17.875 5 19V21C5 22.0625 5.875 23 7 23H13V27C13 27.375 13.25 27.75 13.5625 27.875C13.9375 28.0625 14.375 27.9375 14.6875 27.6875Z" fill="#2E475D"/>
<path d="M23.1989 31.4181C24.632 30.4964 26.316 28.9164 25.6769 27.0551C25.3285 26.0404 24.8459 25.1719 24.7825 24.0756C24.7272 23.1477 24.8656 22.2183 25.189 21.3466C26.4742 17.9028 30.2946 16.2733 33.7475 17.3078C36.9463 18.2653 39.1462 21.9732 37.8208 25.2056C37.0561 27.0697 36.7134 28.5089 38.4193 29.959C38.8815 30.3523 40.0049 30.9416 40 31.6385C39.9943 32.5517 38.2001 31.4441 37.9997 31.2854C38.2278 31.6836 40.4899 34.038 39.0503 34.2056C37.7249 34.3598 36.5548 32.5119 35.7571 31.7189C34.4191 30.3864 34.6521 33.3342 34.646 33.943C34.6367 34.9045 33.9548 36.8526 32.7352 35.5839C31.7265 34.5364 32.1078 32.8646 31.4069 31.7018C30.6389 30.427 29.3611 32.9766 29.042 33.443C28.6854 33.9641 26.9006 36.487 26.1908 35.1427C25.6147 34.0518 26.5355 32.3423 26.9884 31.354C26.8234 31.7124 25.6529 32.2424 25.311 32.4149C24.5385 32.8045 23.7543 33.0355 22.885 32.973C21.0868 32.8443 22.4663 31.8897 23.1989 31.4181Z" fill="#0D80D8"/>
</svg>
