<svg id="Layer_1" data-name="Layer 1" xmlns="http://www.w3.org/2000/svg" viewBox="0 0 1024 1024"><defs><style>.cls-1{fill:#2f93e0;}.cls-2{fill:none;stroke:#2f93e0;stroke-linecap:round;stroke-linejoin:round;stroke-width:23.61px;}.cls-3{fill:#fff;}.cls-4{fill:#1b2e3f;}</style></defs><title>octopus</title><path class="cls-1" d="M613.7,329.55H968a31.89,31.89,0,0,0,31.89-31.89V124.11A31.89,31.89,0,0,0,968,92.21H169.94A31.89,31.89,0,0,0,138,124.11V297.66a31.89,31.89,0,0,0,31.89,31.89H613.7Z"/><path class="cls-2" d="M613.7,329.55H968a31.89,31.89,0,0,0,31.89-31.89V124.11A31.89,31.89,0,0,0,968,92.21H169.94A31.89,31.89,0,0,0,138,124.11V297.66a31.89,31.89,0,0,0,31.89,31.89H613.7Z"/><circle class="cls-3" cx="715.88" cy="203.69" r="25.36"/><circle class="cls-4" cx="809.69" cy="203.69" r="25.36"/><circle class="cls-4" cx="898.42" cy="203.69" r="25.36"/><path class="cls-1" d="M613.7,630.67H968a31.89,31.89,0,0,0,31.89-31.89V425.23A31.89,31.89,0,0,0,968,393.33H169.94A31.89,31.89,0,0,0,138,425.23V598.77a31.89,31.89,0,0,0,31.89,31.89H613.7Z"/><path class="cls-2" d="M613.7,630.67H968a31.89,31.89,0,0,0,31.89-31.89V425.23A31.89,31.89,0,0,0,968,393.33H169.94A31.89,31.89,0,0,0,138,425.23V598.77a31.89,31.89,0,0,0,31.89,31.89H613.7Z"/><circle class="cls-4" cx="715.88" cy="504.8" r="25.36"/><circle class="cls-3" cx="809.69" cy="504.8" r="25.36"/><circle class="cls-4" cx="898.42" cy="504.8" r="25.36"/><path class="cls-1" d="M613.7,931.79H968a31.89,31.89,0,0,0,31.89-31.89V726.34A31.89,31.89,0,0,0,968,694.45H169.94A31.89,31.89,0,0,0,138,726.34V899.89a31.89,31.89,0,0,0,31.89,31.89H613.7Z"/><path class="cls-2" d="M613.7,931.79H968a31.89,31.89,0,0,0,31.89-31.89V726.34A31.89,31.89,0,0,0,968,694.45H169.94A31.89,31.89,0,0,0,138,726.34V899.89a31.89,31.89,0,0,0,31.89,31.89H613.7Z"/><circle class="cls-3" cx="715.88" cy="805.92" r="25.36"/><circle class="cls-3" cx="809.69" cy="805.92" r="25.36"/><circle class="cls-4" cx="898.42" cy="805.92" r="25.36"/><path class="cls-3" d="M254.21,818.88c26.15-16.84,56.87-45.72,45.21-79.74-6.36-18.53-15.16-34.42-16.34-54.45a122.65,122.65,0,0,1,7.45-49.87C314,571.88,383.68,542.08,446.67,561,505,578.52,545.16,646.27,521,705.3c-14,34.07-20.21,60.37,10.92,86.88,8.44,7.19,28.91,18,28.84,30.7-0.1,16.69-32.84-3.55-36.5-6.46,4.16,7.28,45.43,50.3,19.17,53.37-24.18,2.82-45.53-31-60.06-45.45C458.93,800,463.18,853.86,463.07,865c-0.17,17.57-12.58,53.18-34.87,30C409.8,875.83,416.76,845.3,404,824c-14-23.3-37.32,23.3-43.15,31.82-6.51,9.52-39.07,55.64-52,31.07-10.51-19.94,6.29-51.21,14.55-69.24-3,6.55-24.36,16.24-30.6,19.39-14.1,7.12-28.41,11.34-44.26,10.2-32.81-2.35-7.64-19.77,5.72-28.39h0Z"/><path class="cls-4" d="M418.65,191.9a19.63,19.63,0,0,1,4.8,14.89L406.23,438.08a20.15,20.15,0,0,1-21.83,18.78,19.61,19.61,0,0,1-14-7l-53.51-62.13-54.37,46.84q-23.76,20.5-41.32,38.19a394.73,394.73,0,0,0-32.88,37.38q-15.37,19.69-23.4,38.1a149.74,149.74,0,0,0-11.06,38.92,110.94,110.94,0,0,0,1.7,41.27q4.72,20.64,17.17,43.71t33.6,47.61c7.65,8.87,16.65,18.46,26.9,28.78a59.5,59.5,0,0,0,5.52,5.16,70.24,70.24,0,0,1,6.13,5.93,11.86,11.86,0,0,1,3.17,7.83,9.31,9.31,0,0,1-3.6,7.33q-3.87,3.39-10.34,1.76a41.87,41.87,0,0,1-7.76-2.62q-4.17-1.9-9.55-4.48c-3.6-1.72-6.11-2.9-7.56-3.62q-90.38-42.63-125.08-82.9-41.61-48.26-56.77-91.86Q-17.54,459.46,155.5,310.37l54.35-46.84L156.31,201.4a20.37,20.37,0,0,1,17-33.67l231.27,17.2A19.78,19.78,0,0,1,418.65,191.9Z"/></svg>