<svg id="Layer_1" data-name="Layer 1" xmlns="http://www.w3.org/2000/svg" viewBox="0 0 1024 1024"><defs><style>.cls-1{fill:#2f93e0;}.cls-2{fill:#fff;}.cls-3{fill:#1b2e3f;}</style></defs><title>octopus</title><rect class="cls-1" x="87.56" y="101.23" width="848.88" height="848.88" rx="33.88" ry="33.88"/><circle class="cls-1" cx="493.55" cy="525.67" r="384.35"/><rect class="cls-2" x="48.44" y="205.12" width="927.13" height="75.82"/><rect class="cls-1" x="23.82" y="73.9" width="976.36" height="170.85"/><rect class="cls-3" x="391.31" y="73.9" width="241.37" height="106.65"/><path class="cls-2" d="M301.69,731.07c35.25-22.71,76.67-61.64,60.95-107.5-8.57-25-20.44-46.4-22-73.41a165.35,165.35,0,0,1,10-67.24c31.61-84.85,125.58-125,210.51-99.51C639.83,407,693.94,498.36,661.34,578c-18.81,45.93-27.24,81.39,14.72,117.12,11.37,9.69,39,24.21,38.88,41.38-0.14,22.5-44.27-4.79-49.2-8.7,5.61,9.81,61.25,67.82,25.84,71.95-32.6,3.8-61.38-41.73-81-61.27-32.91-32.83-27.18,39.8-27.33,54.8-0.23,23.69-17,71.69-47,40.43-24.81-25.81-15.43-67-32.67-95.65-18.89-31.41-50.32,31.41-58.17,42.9-8.77,12.84-52.67,75-70.13,41.88-14.17-26.88,8.48-69,19.62-93.35-4.06,8.83-32.85,21.89-41.26,26.14-19,9.6-38.29,15.29-59.67,13.75-44.23-3.17-10.31-26.65,7.71-38.27h0Z"/></svg>