<svg width="40" height="40" viewBox="0 0 40 40" fill="none" xmlns="http://www.w3.org/2000/svg">
<path d="M4.02823 10C4.68024 6.7 7.89015 4 11.2004 4H31.3626C32.4158 4 33.1681 4.95 32.9675 6L31.204 15.0156C27.8291 15.1871 24.6182 17.1528 23.3354 20.637C22.8631 21.8256 22.7129 23.0093 22.7876 24.2122C22.8334 25.0136 23.0337 25.7052 23.2367 26.276C23.3336 26.5484 23.4389 26.8137 23.5303 27.0442L23.54 27.0686C23.638 27.3157 23.7221 27.5285 23.7978 27.742L23.7989 27.7452C23.8448 27.8738 23.8765 28.0457 23.6029 28.4363C23.3345 28.8194 22.8876 29.221 22.3528 29.5987C22.3356 29.6076 22.3215 29.6152 22.3113 29.6208C22.2912 29.6318 22.2719 29.6426 22.2538 29.6531L22.5855 28H6.53597C5.38241 28 4.32916 28.95 4.12854 30C3.87777 31.1 4.63009 32 5.73349 32H20.0725C20.0372 32.1374 20.0119 32.2878 20.0032 32.4498C19.9668 33.1311 20.2388 33.7576 20.7048 34.1993C21.0988 34.573 21.5466 34.738 21.8404 34.8195C22.1551 34.9067 22.4819 34.9487 22.7921 34.9689C23.2286 34.9994 23.6538 34.9852 24.0685 34.9287C24.118 35.2817 24.2191 35.6438 24.3949 36H4.98117C1.62081 36 -0.535848 33.3 0.116164 30L1.68099 22H13C13.5523 22 14 21.5523 14 21C14 20.4477 13.5523 20 13 20H1C0.447715 20 0 19.5523 0 19C0 18.4477 0.447715 18 1 18H15C15.5523 18 16 17.5523 16 17C16 16.4477 15.5523 16 15 16H2.85461L2.85661 15.9898C2.37226 15.9202 2 15.5036 2 15C2 14.4477 2.44772 14 3 14H17C17.5523 14 18 13.5523 18 13C18 12.4477 17.5523 12 17 12H1C0.447715 12 0 11.5523 0 11C0 10.4477 0.447715 10 1 10H4.02823Z" fill="#2E475D"/>
<path d="M23.1989 31.4181C24.632 30.4964 26.316 28.9164 25.6769 27.0551C25.3285 26.0404 24.8459 25.1719 24.7825 24.0756C24.7272 23.1477 24.8656 22.2183 25.189 21.3466C26.4742 17.9028 30.2946 16.2733 33.7475 17.3078C36.9463 18.2653 39.1462 21.9732 37.8208 25.2056C37.0561 27.0697 36.7134 28.5089 38.4193 29.959C38.8815 30.3523 40.0049 30.9416 40 31.6385C39.9943 32.5517 38.2001 31.4441 37.9997 31.2854C38.2278 31.6836 40.4899 34.038 39.0503 34.2056C37.7249 34.3598 36.5548 32.5119 35.7571 31.7189C34.4191 30.3864 34.6521 33.3342 34.646 33.943C34.6367 34.9045 33.9548 36.8526 32.7352 35.5839C31.7265 34.5364 32.1078 32.8646 31.4069 31.7018C30.6389 30.427 29.3611 32.9766 29.042 33.443C28.6854 33.9641 26.9006 36.487 26.1908 35.1427C25.6147 34.0518 26.5355 32.3423 26.9884 31.354C26.8234 31.7124 25.6529 32.2424 25.311 32.4149C24.5385 32.8045 23.7543 33.0355 22.885 32.973C21.0868 32.8443 22.4663 31.8897 23.1989 31.4181Z" fill="#0D80D8"/>
</svg>
