<svg id="Layer_1" data-name="Layer 1" xmlns="http://www.w3.org/2000/svg" viewBox="0 0 32 32"><defs><style>.cls-1{fill:#0f2535;}.cls-2{fill:#2f93e0;}.cls-3{fill:#fff;}</style></defs><title>command-line</title><rect class="cls-1" x="1.49" y="3.11" width="29.01" height="25.79"/><rect class="cls-2" x="1.49" y="3.11" width="29.01" height="4.04"/><circle class="cls-3" cx="28.09" cy="5.33" r="0.72"/><circle class="cls-3" cx="25.41" cy="5.25" r="0.72"/><circle class="cls-3" cx="22.73" cy="5.32" r="0.72"/><path class="cls-3" d="M12.6,23.2a.31.31,0,0,1-.44,0h0L7.58,18.62a.31.31,0,0,1,0-.44h0l4.57-4.57a.31.31,0,0,1,.44,0h0l.49.49a.33.33,0,0,1,0,.45h0L9.24,18.4l3.85,3.85a.33.33,0,0,1,0,.45h0Zm2.63,1.7a.32.32,0,0,1-.38.22L14.24,25a.32.32,0,0,1-.22-.39L17.68,11.9a.32.32,0,0,1,.38-.22l.61.17a.32.32,0,0,1,.22.39Zm5.53-1.7a.31.31,0,0,1-.44,0h0l-.49-.5a.31.31,0,0,1,0-.44h0l3.85-3.85-3.85-3.86a.31.31,0,0,1,0-.44h0l.49-.49a.31.31,0,0,1,.44,0h0l4.57,4.57a.32.32,0,0,1,0,.45h0Z"/></svg>