<svg width="40" height="40" viewBox="0 0 40 40" fill="none" xmlns="http://www.w3.org/2000/svg">
<path fill-rule="evenodd" clip-rule="evenodd" d="M12.1706 11.4603H6.89813C5.43356 11.4603 4.02757 12.2804 3.26599 13.5692L0.219686 18.7245C-0.0732285 19.1932 -0.0732285 19.7204 0.219686 20.1305C0.454017 20.5992 0.922679 20.8335 1.44992 20.8335H8.12837C9.47577 20.8335 10.7646 21.3608 11.7019 22.2981C12.6392 23.2354 13.1665 24.5242 13.1665 25.8716V32.5501C13.1665 33.0773 13.4008 33.546 13.8695 33.7803C14.2796 34.0732 14.8068 34.0732 15.2755 33.7803L20.4308 30.734C21.7196 29.9724 22.5397 28.5664 22.5397 27.1019V21.8294C22.7113 21.726 22.8792 21.6212 23.0434 21.5152C23.1222 21.2225 23.219 20.9299 23.3354 20.637C24.2704 18.0974 26.2298 16.3645 28.5305 15.5452C30.273 12.0061 30.1864 8.30091 29.6868 5.66056C29.5697 4.95757 29.0424 4.43033 28.3394 4.31316C24.0043 3.493 16.7986 3.78591 12.1706 11.4603ZM22.5397 9.11695C23.8286 9.11695 24.883 10.1714 24.883 11.4603C24.883 12.8077 23.8286 13.8036 22.5397 13.8036C21.1923 13.8036 20.1964 12.8077 20.1964 11.4603C20.1964 10.1714 21.1923 9.11695 22.5397 9.11695Z" fill="#2E475D"/>
<path fill-rule="evenodd" clip-rule="evenodd" d="M0.0439371 33.9561C0.0439371 33.9561 6.89813 34.4247 9.76868 31.4956C11.7605 29.5038 11.7605 26.2231 9.76868 24.2313C7.77687 22.2395 4.49623 22.2395 2.50442 24.2313C-0.424725 27.1019 0.0439371 33.9561 0.0439371 33.9561ZM7.01529 26.9847C7.71829 27.6291 7.71829 28.7422 7.01529 29.3866C6.07797 30.3825 3.79324 30.2068 3.79324 30.2068C3.79324 30.2068 3.61749 27.922 4.6134 26.9847C5.25781 26.2817 6.37088 26.2817 7.01529 26.9847Z" fill="#2E475D"/>
<path d="M23.1989 31.4181C24.632 30.4964 26.316 28.9164 25.6769 27.0551C25.3285 26.0404 24.8459 25.1719 24.7825 24.0756C24.7272 23.1477 24.8656 22.2183 25.189 21.3466C26.4742 17.9028 30.2946 16.2733 33.7475 17.3078C36.9463 18.2653 39.1462 21.9732 37.8208 25.2056C37.0561 27.0697 36.7134 28.5089 38.4193 29.959C38.8815 30.3523 40.0049 30.9416 40 31.6385C39.9943 32.5517 38.2001 31.4441 37.9997 31.2854C38.2278 31.6836 40.4899 34.038 39.0503 34.2056C37.7249 34.3598 36.5548 32.5119 35.7571 31.7189C34.4191 30.3864 34.6521 33.3342 34.646 33.943C34.6367 34.9045 33.9548 36.8526 32.7352 35.5839C31.7265 34.5364 32.1078 32.8646 31.4069 31.7018C30.6389 30.427 29.3611 32.9766 29.042 33.443C28.6854 33.9641 26.9006 36.487 26.1908 35.1427C25.6147 34.0518 26.5355 32.3423 26.9884 31.354C26.8234 31.7124 25.6529 32.2424 25.311 32.4149C24.5385 32.8045 23.7543 33.0355 22.885 32.973C21.0868 32.8443 22.4663 31.8897 23.1989 31.4181Z" fill="#0D80D8"/>
</svg>
