<svg width="40" height="40" viewBox="0 0 40 40" fill="none" xmlns="http://www.w3.org/2000/svg">
<path fill-rule="evenodd" clip-rule="evenodd" d="M0 10C0 7.79086 1.79086 6 4 6H24C26.2091 6 28 7.79086 28 10V15.753C25.9311 16.639 24.1977 18.295 23.3354 20.637C22.8631 21.8256 22.7129 23.0093 22.7876 24.2122C22.819 24.7622 22.9232 25.2604 23.0511 25.7033C22.9983 25.6946 22.9446 25.6901 22.8903 25.6901H12.9033C12.2792 25.6901 11.7937 26.2252 11.7937 26.8317C11.7937 27.4738 12.2792 27.9732 12.9033 27.9732H22.8903C23.2195 27.9732 23.527 27.8176 23.7344 27.5683C23.7562 27.6266 23.7773 27.6843 23.7978 27.742L23.7989 27.7452C23.8448 27.8738 23.8765 28.0457 23.6029 28.4363C23.3345 28.8194 22.8876 29.221 22.3528 29.5987C22.3426 29.604 22.3336 29.6088 22.3258 29.613C22.3203 29.6159 22.3155 29.6185 22.3113 29.6208C22.2556 29.6512 22.2064 29.6808 22.1705 29.7031C22.1337 29.726 22.0878 29.7556 22.0394 29.7894C22.016 29.8057 21.9787 29.8323 21.9356 29.8661C21.9287 29.8715 21.9207 29.8777 21.9119 29.8848C21.9059 29.8897 21.8995 29.8949 21.8927 29.9005C21.7328 30.0043 21.5571 30.1243 21.385 30.2542C21.1418 30.4379 20.7274 30.771 20.4269 31.2194C20.2746 31.4466 20.034 31.8745 20.0032 32.4498C19.972 33.0342 20.1677 33.5782 20.518 34H4C1.79086 34 0 32.2091 0 30V10ZM4.3381 12.3478C3.8873 12.7759 3.8873 13.5251 4.3381 13.9532L10.1985 19.9822L4.3381 26.0468C3.8873 26.4749 3.8873 27.2241 4.3381 27.6522C4.75423 28.1159 5.48244 28.1159 5.89857 27.6522L12.5566 20.8027C13.0074 20.3746 13.0074 19.6254 12.5566 19.1973L5.89857 12.3478C5.48244 11.8841 4.75423 11.8841 4.3381 12.3478Z" fill="#2E475D"/>
<path d="M23.1989 31.4181C24.632 30.4964 26.316 28.9164 25.6769 27.0551C25.3285 26.0404 24.8459 25.1719 24.7825 24.0756C24.7272 23.1477 24.8656 22.2183 25.189 21.3466C26.4742 17.9028 30.2946 16.2733 33.7475 17.3078C36.9463 18.2653 39.1462 21.9732 37.8208 25.2056C37.0561 27.0697 36.7134 28.5089 38.4193 29.959C38.8815 30.3523 40.0049 30.9416 40 31.6385C39.9943 32.5517 38.2001 31.4441 37.9997 31.2854C38.2278 31.6836 40.4899 34.038 39.0503 34.2056C37.7249 34.3598 36.5548 32.5119 35.7571 31.7189C34.4191 30.3864 34.6521 33.3342 34.646 33.943C34.6367 34.9045 33.9548 36.8526 32.7352 35.5839C31.7265 34.5364 32.1078 32.8646 31.4069 31.7018C30.6389 30.427 29.3611 32.9766 29.042 33.443C28.6854 33.9641 26.9006 36.487 26.1908 35.1427C25.6147 34.0518 26.5355 32.3423 26.9884 31.354C26.8234 31.7124 25.6529 32.2424 25.311 32.4149C24.5385 32.8045 23.7543 33.0355 22.885 32.973C21.0868 32.8443 22.4663 31.8897 23.1989 31.4181Z" fill="#0D80D8"/>
</svg>
