<svg width="40" height="40" viewBox="0 0 40 40" fill="none" xmlns="http://www.w3.org/2000/svg">
<path d="M9.58439 9.02118C10.1463 8.39512 10.1463 7.45604 9.52195 6.89259C8.89756 6.32914 7.96098 6.39174 7.39902 6.95519L3.96488 10.8367L2.52878 9.45942C1.96683 8.83336 1.03024 8.83336 0.468293 9.45942C-0.156098 10.0229 -0.156098 10.962 0.468293 11.5254L2.96585 14.0296C3.21561 14.3427 3.65268 14.5305 4.02732 14.4679C4.46439 14.4679 4.83902 14.2801 5.08878 14.0296L9.58439 9.02118Z" fill="#2E475D"/>
<path d="M9.58439 19.0381C10.1463 18.412 10.1463 17.4729 9.52195 16.9095C8.89756 16.346 7.96098 16.4087 7.39902 16.9721L3.96488 20.8537L2.52878 19.4763C1.96683 18.8503 1.03024 18.8503 0.468293 19.4763C-0.156098 20.0398 -0.156098 20.9789 0.468293 21.5423L2.96585 24.0465C3.21561 24.3596 3.65268 24.5474 4.02732 24.4848C4.46439 24.4848 4.83902 24.297 5.08878 24.0465L9.58439 19.0381Z" fill="#2E475D"/>
<path d="M16.0156 8.45773C14.8917 8.45773 14.0176 9.39681 14.0176 10.4611C14.0176 11.588 14.8917 12.4645 16.0156 12.4645H30.002C31.0634 12.4645 32 11.588 32 10.4611C32 9.39681 31.0634 8.45773 30.002 8.45773H16.0156Z" fill="#2E475D"/>
<path d="M16.0156 18.4746C14.8917 18.4746 14.0176 19.4137 14.0176 20.478C14.0176 21.6049 14.8917 22.4814 16.0156 22.4814H22.8475C22.9329 21.8657 23.091 21.252 23.3354 20.637C23.6309 19.8345 24.0286 19.1126 24.507 18.4746H16.0156Z" fill="#2E475D"/>
<path d="M23.563 28.4915C23.2914 28.8579 22.862 29.2392 22.3528 29.5987C22.3356 29.6076 22.3215 29.6152 22.3113 29.6208C22.2556 29.6512 22.2064 29.6808 22.1705 29.7031C22.1337 29.726 22.0878 29.7556 22.0394 29.7894C22.016 29.8057 21.9787 29.8323 21.9356 29.8661C21.924 29.8751 21.9095 29.8867 21.8927 29.9005C21.7328 30.0043 21.5571 30.1243 21.385 30.2542C21.1418 30.4379 20.7274 30.771 20.4269 31.2194C20.2746 31.4466 20.034 31.8745 20.0032 32.4498C20.0024 32.466 20.0017 32.4822 20.0012 32.4983H12.0195C10.8956 32.4983 10.0215 31.6218 10.0215 30.4949C10.0215 29.4306 10.8956 28.4915 12.0195 28.4915H23.563Z" fill="#2E475D"/>
<path d="M0.0312195 30.4949C0.0312195 32.1853 1.34244 33.5 3.02829 33.5C4.65171 33.5 6.02537 32.1853 6.02537 30.4949C6.02537 28.8672 4.65171 27.4899 3.02829 27.4899C1.34244 27.4899 0.0312195 28.8672 0.0312195 30.4949Z" fill="#2E475D"/>
<path d="M23.1989 31.4181C24.632 30.4964 26.316 28.9164 25.6769 27.0551C25.3285 26.0404 24.8459 25.1719 24.7825 24.0756C24.7272 23.1477 24.8656 22.2183 25.189 21.3466C26.4742 17.9028 30.2946 16.2733 33.7475 17.3078C36.9463 18.2653 39.1462 21.9732 37.8208 25.2056C37.0561 27.0697 36.7134 28.5089 38.4193 29.959C38.8815 30.3523 40.0049 30.9416 40 31.6385C39.9943 32.5517 38.2001 31.4441 37.9997 31.2854C38.2278 31.6836 40.4899 34.038 39.0503 34.2056C37.7249 34.3598 36.5548 32.5119 35.7571 31.7189C34.4191 30.3864 34.6521 33.3342 34.646 33.943C34.6367 34.9045 33.9548 36.8526 32.7352 35.5839C31.7265 34.5364 32.1078 32.8646 31.4069 31.7018C30.6389 30.427 29.3611 32.9766 29.042 33.443C28.6854 33.9641 26.9006 36.487 26.1908 35.1427C25.6147 34.0518 26.5355 32.3423 26.9884 31.354C26.8234 31.7124 25.6529 32.2424 25.311 32.4149C24.5385 32.8045 23.7543 33.0355 22.885 32.973C21.0868 32.8443 22.4663 31.8897 23.1989 31.4181Z" fill="#0D80D8"/>
</svg>
