<svg id="Layer_1" data-name="Layer 1" xmlns="http://www.w3.org/2000/svg" viewBox="0 0 1024 1024"><defs><style>.cls-1{fill:#2f93e0;}.cls-2{fill:#fff;}.cls-3{fill:none;stroke:#1b2e3f;stroke-linecap:round;stroke-linejoin:round;stroke-width:20.94px;stroke-dasharray:70.68 41.65;}.cls-4{fill:#1b2e3f;}</style></defs><title>octopus</title><rect class="cls-1" x="143.79" y="72.28" width="736.42" height="667.02" rx="33.87" ry="33.87"/><path class="cls-2" d="M238.43,437.26c15.41-9.93,33.52-26.95,26.64-47-3.75-10.92-8.94-20.28-9.63-32.09a72.28,72.28,0,0,1,4.39-29.39c13.82-37.09,54.9-54.65,92-43.5,34.39,10.33,58,50.25,43.79,85-8.22,20.08-11.91,35.58,6.43,51.2,5,4.24,17,10.58,17,18.09-0.06,9.83-19.35-2.09-21.51-3.81,2.45,4.29,26.78,29.65,11.3,31.45-14.25,1.66-26.83-18.24-35.4-26.79-14.39-14.35-11.88,17.4-11.95,24-0.1,10.36-7.42,31.34-20.55,17.67-10.84-11.28-6.74-29.28-14.28-41.81-8.26-13.73-22,13.73-25.43,18.75-3.84,5.61-23,32.79-30.66,18.31-6.19-11.75,3.71-30.18,8.58-40.81-1.78,3.86-14.36,9.57-18,11.43-8.31,4.2-16.74,6.68-26.08,6-19.33-1.39-4.51-11.65,3.37-16.73h0Z"/><path class="cls-2" d="M554.17,479.31H514.82V371.59l0.38-17.7,0.64-19.35q-9.81,9.81-13.62,12.86l-21.39,17.19-19-23.68,60-47.75h32.34V479.31Z"/><path class="cls-2" d="M597.15,461.1q0-10.7,5.73-16.17t16.68-5.48q10.57,0,16.36,5.6t5.79,16q0,10.06-5.86,15.85t-16.3,5.79q-10.7,0-16.55-5.67T597.15,461.1Z"/><path class="cls-2" d="M783.13,386.23q0,48.77-16,72.2t-49.21,23.43q-32.21,0-48.58-24.19T653,386.23q0-49.28,15.92-72.64t49-23.37q32.21,0,48.7,24.45T783.13,386.23Zm-91,0q0,34.25,5.92,49.09t19.93,14.83q13.75,0,19.86-15t6.11-48.89q0-34.25-6.18-49.21t-19.8-15q-13.88,0-19.86,15T692.09,386.23Z"/><rect class="cls-3" x="80.47" y="782.14" width="863.07" height="160.91" rx="80.45" ry="80.45"/><path class="cls-4" d="M173.22,836.48a25.18,25.18,0,1,1-17.8,7.37,25,25,0,0,1,17.8-7.37m0-20.94A46.12,46.12,0,1,0,205.83,829a46,46,0,0,0-32.61-13.51h0Z"/><path class="cls-4" d="M512,836.48a25.18,25.18,0,1,1-17.8,7.37,25,25,0,0,1,17.8-7.37m0-20.94A46.12,46.12,0,1,0,544.61,829,46,46,0,0,0,512,815.53h0Z"/><path class="cls-4" d="M854.16,836.48a25.18,25.18,0,1,1-17.8,7.37,25,25,0,0,1,17.8-7.37m0-20.94A46.12,46.12,0,1,0,886.77,829a46,46,0,0,0-32.61-13.51h0Z"/></svg>