<svg id="Layer_1" data-name="Layer 1" xmlns="http://www.w3.org/2000/svg" viewBox="0 0 1024 1024"><defs><style>.cls-1{fill:#2f93e0;}.cls-2{fill:#fff;}.cls-3{fill:#1b2e3f;}</style></defs><title>octopus</title><circle class="cls-1" cx="680.87" cy="512" r="323.96"/><path class="cls-2" d="M485.3,635.52c35.93-23.14,78.14-62.82,62.11-109.56-8.73-25.46-20.83-47.29-22.45-74.82a168.52,168.52,0,0,1,10.24-68.53c32.22-86.47,128-127.41,214.54-101.42,80.17,24.07,135.32,117.16,102.1,198.27-19.17,46.81-27.76,82.95,15,119.37,11.59,9.87,39.73,24.67,39.62,42.18-0.14,22.93-45.12-4.88-50.15-8.87,5.72,10,62.43,69.12,26.33,73.33-33.22,3.87-62.56-42.53-82.52-62.45-33.54-33.46-27.7,40.56-27.86,55.85C772,723,755,771.95,724.37,740.08c-25.28-26.3-15.72-68.26-33.3-97.48-19.25-32-51.28,32-59.29,43.72-8.94,13.08-53.68,76.44-71.47,42.69-14.44-27.39,8.64-70.36,20-95.14-4.14,9-33.48,22.31-42.05,26.64-19.37,9.78-39,15.58-60.81,14-45.08-3.23-10.5-27.16,7.85-39h0Z"/><path class="cls-3" d="M468.74,527.94a24.72,24.72,0,0,1-7.22,17.75L255,760.3a23.2,23.2,0,0,1-34.17,0,24.67,24.67,0,0,1-7.22-17.75V628.93H43.47a22.9,22.9,0,0,1-17.08-7.51,24.67,24.67,0,0,1-7.22-17.75V452.18a24.72,24.72,0,0,1,7.22-17.75A23,23,0,0,1,43.47,427H213.59V313.3a24.72,24.72,0,0,1,7.22-17.75,23.26,23.26,0,0,1,34.17,0L461.53,510.19A24.67,24.67,0,0,1,468.74,527.94Z"/></svg>